<svg width="125.246124" height="45.000000" viewBox="0 0 125.246 45" fill="none" xmlns="http://www.w3.org/2000/svg" xmlns:xlink="http://www.w3.org/1999/xlink">
	<desc>
			Created with Pixso.
	</desc>
	<defs>
		<clipPath id="clip0_159">
			<rect id="Isolation_Mode" width="41.434605" height="41.434605" transform="translate(0.000000 2.071716)" fill="white" fill-opacity="0"/>
		</clipPath>
	</defs>
	<g clip-path="url(#clip0_159)">
		<path id="Vector" d="M15.2535 3.09601C13.3619 4.48157 12.6751 6.7226 13.1812 8.74673C13.5185 10.1443 13.1812 11.6263 12.1691 12.6504L10.5908 14.2288C9.56665 15.2529 8.09674 15.5782 6.68707 15.2408C4.6629 14.7469 2.40985 15.4336 1.03632 17.3132C-0.252869 19.0843 -0.337219 21.5422 0.855591 23.3856C2.80743 26.3857 6.8678 26.6869 9.25336 24.3133C10.6871 22.8795 11.1329 20.8554 10.6149 19.0361C10.2413 17.7228 10.6992 16.3011 11.6751 15.3252L13.2535 13.7468C14.2173 12.783 15.639 12.313 16.9644 12.6866C18.7837 13.2047 20.8079 12.7589 22.2416 11.3251C24.6272 8.93948 24.3139 4.87918 21.3138 2.92731C19.4825 1.73453 17.0126 1.81888 15.2415 3.10806L15.2535 3.09601Z" fill="#061DB2" fill-opacity="1.000000" fill-rule="nonzero"/>
		<path id="Vector" d="M30.8561 5.10794C28.9645 6.4935 28.2897 8.73453 28.7838 10.7587C29.1211 12.1563 28.7838 13.6382 27.7717 14.6624L25.9162 16.5178C24.9523 17.4817 23.5306 17.9516 22.2053 17.5781C20.386 17.06 18.3618 17.5058 16.928 18.9395C15.4943 20.3733 15.0485 22.3975 15.5666 24.2168C15.9401 25.53 15.4822 26.9518 14.5063 27.9277L12.6509 29.7831C11.6268 30.8073 10.1569 31.1326 8.74719 30.7952C6.72302 30.3012 4.46997 30.988 3.09644 32.8676C1.80725 34.6387 1.7229 37.0966 2.91571 38.94C4.86755 41.94 8.92792 42.2412 11.3135 39.8677C12.7473 38.4339 13.1931 36.4098 12.675 34.5905C12.3015 33.2772 12.7593 31.8555 13.7352 30.8795L15.5907 29.0241C16.5546 28.0602 17.9763 27.5903 19.3016 27.9638C21.1209 28.4819 23.1451 28.0361 24.5789 26.6024C26.0126 25.1686 26.4584 23.1444 25.9403 21.3251C25.5668 20.0118 26.0247 18.5901 27.0005 17.6142L28.856 15.7588C29.8199 14.7949 31.2416 14.325 32.567 14.6985C34.3863 15.2166 36.4104 14.7708 37.8442 13.337C40.2297 10.9514 39.9165 6.89111 36.9164 4.93924C35.0851 3.74646 32.6152 3.83081 30.8441 5.12L30.8561 5.10794Z" fill="#061DB2" fill-opacity="1.000000" fill-rule="nonzero"/>
		<path id="Vector" d="M32.8681 20.7227C30.9765 22.1083 30.3018 24.3493 30.7958 26.3735C31.1331 27.7711 30.7958 29.2531 29.7837 30.2772L28.2054 31.8555C27.1813 32.8796 25.7114 33.2049 24.3017 32.8676C22.2775 32.3736 20.0245 33.0604 18.6509 34.9399C17.3618 36.711 17.2774 39.1689 18.4702 41.0123C20.4221 44.0124 24.4824 44.3257 26.868 41.9401C28.3018 40.5063 28.7476 38.4821 28.2295 36.6628C27.856 35.3495 28.3138 33.9278 29.2897 32.9519L30.8681 31.3736C31.832 30.4097 33.2537 29.9398 34.579 30.3133C36.3983 30.8314 38.4225 30.3856 39.8562 28.9518C42.2418 26.5662 41.9285 22.5059 38.9285 20.554C37.0971 19.3613 34.6272 19.4456 32.8561 20.7348L32.8681 20.7227Z" fill="#061DB2" fill-opacity="1.000000" fill-rule="nonzero"/>
	</g>
	<path id="VIM" d="M60.5887 8.93283L56.1729 8.93283L65.913 36L70.6287 36L80.3689 8.93283L75.9531 8.93283L68.4208 30.9754L68.1209 30.9754L60.5887 8.93283ZM88.3546 8.93283L84.2659 8.93283L84.2659 36L88.3546 36L88.3546 8.93283ZM94.2969 8.93283L94.2969 36L98.1857 36L98.1857 16.4015L98.4401 16.4015L106.418 35.9637L109.643 35.9637L117.63 16.4106L117.875 16.4106L117.875 36L121.764 36L121.764 8.93283L116.803 8.93283L108.189 29.976L107.871 29.976L99.2578 8.93283L94.2969 8.93283Z" fill="#061DB2" fill-opacity="1.000000" fill-rule="evenodd"/>
</svg>
